<svg width="32" height="32" viewBox="0 0 32 32" fill="none" xmlns="http://www.w3.org/2000/svg">
<path d="M22.7153 0H9.30063C3.47373 0 0 3.472 0 9.296V22.688C0 28.528 3.47373 32 9.30063 32H22.6993C28.5262 32 31.9999 28.528 31.9999 22.704V9.296C32.016 3.472 28.5422 0 22.7153 0Z" fill="#FF5A16"/>
<path d="M22.9377 11.5664C23.1691 11.2612 23.6143 11.2088 23.9045 11.4443L23.9114 11.4492L23.9182 11.4551C24.2208 11.6843 24.2801 12.1163 24.0354 12.4268L24.0334 12.4297L20.3372 17.1953C19.9511 17.6877 19.4145 17.9976 18.8049 18.0625L18.7942 18.0645C18.2533 18.1334 17.7239 18.0116 17.2727 17.7236L17.0852 17.5908L14.1565 15.2871L14.1545 15.2881C13.9224 15.0985 13.6604 15.0735 13.4788 15.1035C13.2741 15.122 13.0462 15.2286 12.8743 15.4551L9.0647 20.3984L9.04126 20.4316C8.93886 20.5888 8.75755 20.6836 8.53247 20.6836C8.38381 20.6836 8.2372 20.6391 8.10474 20.5352L8.0979 20.5293L7.99536 20.4346C7.78428 20.1936 7.763 19.8259 7.96802 19.5527L11.7756 14.6123C12.1613 14.1206 12.7002 13.8064 13.3176 13.7275H13.3196C13.9206 13.6493 14.5387 13.8185 15.0266 14.2002V14.2012L17.9397 16.4912V16.4922C18.1683 16.6879 18.4129 16.7104 18.5911 16.6904C18.8056 16.6838 19.0518 16.5789 19.2356 16.3379L19.2366 16.3389L22.9348 11.5703L22.9377 11.5664Z" stroke="white"/>
</svg>
