<svg width="32" height="32" viewBox="0 0 32 32" fill="none" xmlns="http://www.w3.org/2000/svg">
<path d="M2.66669 12V8.66669C2.66669 5.34669 5.34669 2.66669 8.66669 2.66669H12" stroke="#121212" stroke-width="1.5" stroke-linecap="round" stroke-linejoin="round"/>
<path d="M20 2.66669H23.3333C26.6533 2.66669 29.3333 5.34669 29.3333 8.66669V12" stroke="#121212" stroke-width="1.5" stroke-linecap="round" stroke-linejoin="round"/>
<path d="M29.3333 21.3333V23.3333C29.3333 26.6533 26.6533 29.3333 23.3333 29.3333H21.3333" stroke="#121212" stroke-width="1.5" stroke-linecap="round" stroke-linejoin="round"/>
<path d="M12 29.3333H8.66669C5.34669 29.3333 2.66669 26.6533 2.66669 23.3333V20" stroke="#121212" stroke-width="1.5" stroke-linecap="round" stroke-linejoin="round"/>
<path d="M22.6666 12.6667V19.3334C22.6666 22 21.3333 23.3334 18.6666 23.3334H13.3333C10.6666 23.3334 9.33331 22 9.33331 19.3334V12.6667C9.33331 10 10.6666 8.66669 13.3333 8.66669H18.6666C21.3333 8.66669 22.6666 10 22.6666 12.6667Z" stroke="black" stroke-width="1.5" stroke-linecap="round" stroke-linejoin="round"/>
<path d="M25.3334 16H6.66669" stroke="#121212" stroke-width="1.5" stroke-linecap="round" stroke-linejoin="round"/>
</svg>
