<svg width="38" height="34" viewBox="0 0 38 34" fill="none" xmlns="http://www.w3.org/2000/svg">
<path d="M19 24.1111C21.9823 24.1111 24.4 21.7232 24.4 18.7777C24.4 15.8322 21.9823 13.4444 19 13.4444C16.0176 13.4444 13.6 15.8322 13.6 18.7777C13.6 21.7232 16.0176 24.1111 19 24.1111Z" stroke="black" stroke-width="1.5"/>
<path d="M15.0004 33.0001H22.9996C28.6174 33.0001 31.4272 33.0001 33.445 31.6934C34.3159 31.1301 35.0658 30.4028 35.6518 29.553C37 27.5974 37 24.8721 37 19.425C37 13.9779 37 11.2525 35.6518 9.29697C35.0658 8.44718 34.3159 7.71983 33.445 7.15653C32.149 6.31564 30.5254 6.01519 28.0396 5.90853C26.8534 5.90853 25.8328 5.03742 25.6006 3.90853C25.4231 3.08163 24.9621 2.34059 24.2953 1.81066C23.6286 1.28073 22.797 0.994409 21.9412 1.00008H16.0588C14.2804 1.00008 12.7486 2.21786 12.3994 3.90853C12.1672 5.03742 11.1466 5.90853 9.9604 5.90853C7.4764 6.01519 5.8528 6.31742 4.555 7.15653C3.68477 7.72001 2.93549 8.44735 2.35 9.29697C1 11.2525 1 13.9761 1 19.425C1 24.8739 1 27.5956 2.3482 29.553C2.9314 30.3992 3.6802 31.1263 4.555 31.6934C6.5728 33.0001 9.3826 33.0001 15.0004 33.0001Z" stroke="black" stroke-width="1.5"/>
<path d="M31.6 13.4444H29.8" stroke="black" stroke-width="1.5" stroke-linecap="round"/>
</svg>
