<svg width="70" height="70" viewBox="0 0 70 70" fill="none" xmlns="http://www.w3.org/2000/svg">
<circle cx="35" cy="35" r="35" fill="#FF5A16"/>
<path d="M43 21.6666L44.8479 25.1521L48.3333 27L44.8479 28.8479L43 32.3333L41.1521 28.8479L37.6666 27L41.1521 25.1521L43 21.6666Z" fill="white"/>
<path d="M33 25.6666L36.4459 33.554L44.3333 37L36.4459 40.4459L33 48.3333L29.554 40.4459L21.6666 37L29.554 33.554L33 25.6666Z" fill="white"/>
<path d="M43 21.6666L44.8479 25.1521L48.3333 27L44.8479 28.8479L43 32.3333L41.1521 28.8479L37.6666 27L41.1521 25.1521L43 21.6666Z" stroke="white" stroke-width="1.5" stroke-linejoin="round"/>
<path d="M33 25.6666L36.4459 33.554L44.3333 37L36.4459 40.4459L33 48.3333L29.554 40.4459L21.6666 37L29.554 33.554L33 25.6666Z" stroke="white" stroke-width="1.5" stroke-linejoin="round"/>
</svg>
