<svg width="32" height="32" viewBox="0 0 32 32" fill="none" xmlns="http://www.w3.org/2000/svg">
<path d="M0 16C0 11.7565 1.68571 7.68687 4.68629 4.68629C7.68687 1.68571 11.7565 0 16 0C20.2435 0 24.3131 1.68571 27.3137 4.68629C30.3143 7.68687 32 11.7565 32 16V26.18C32 27.876 32 28.72 31.748 29.398C31.5476 29.9353 31.2341 30.4232 30.8286 30.8286C30.4232 31.2341 29.9353 31.5476 29.398 31.748C28.72 32 27.874 32 26.18 32H16C11.7565 32 7.68687 30.3143 4.68629 27.3137C1.68571 24.3131 0 20.2435 0 16Z" fill="#FF5A16"/>
<path d="M10 14H22H10ZM16 22H22H16Z" fill="#FF5A16"/>
<path d="M10 14H22M16 22H22" stroke="white" stroke-width="1.5" stroke-linecap="round" stroke-linejoin="round"/>
</svg>
