<svg width="34" height="34" viewBox="0 0 34 34" fill="none" xmlns="http://www.w3.org/2000/svg">
<path d="M1 17C1 12.7565 2.68571 8.68687 5.68629 5.68629C8.68687 2.68571 12.7565 1 17 1C21.2435 1 25.3131 2.68571 28.3137 5.68629C31.3143 8.68687 33 12.7565 33 17V27.18C33 28.876 33 29.72 32.748 30.398C32.5476 30.9353 32.2341 31.4232 31.8286 31.8286C31.4232 32.2341 30.9353 32.5476 30.398 32.748C29.72 33 28.874 33 27.18 33H17C12.7565 33 8.68687 31.3143 5.68629 28.3137C2.68571 25.3131 1 21.2435 1 17Z" fill="white" stroke="black" stroke-width="1.5"/>
<path d="M11 15H23H11ZM17 23H23H17Z" fill="white"/>
<path d="M11 15H23M17 23H23" stroke="#878488" stroke-width="1.5" stroke-linecap="round" stroke-linejoin="round"/>
</svg>
