<svg width="34" height="34" viewBox="0 0 34 34" fill="none" xmlns="http://www.w3.org/2000/svg">
<path d="M28.2 33H5.8C1 33 1 30.84 1 28.2V26.6C1 25.72 1.72 25 2.6 25H31.4C32.28 25 33 25.72 33 26.6V28.2C33 30.84 33 33 28.2 33Z" stroke="white" stroke-width="1.5" stroke-linecap="round" stroke-linejoin="round"/>
<path d="M31 18.6V25H3.07996V18.6C3.07996 12.456 7.41596 7.32005 13.192 6.08805C14.056 5.89605 14.952 5.80005 15.88 5.80005H18.2C19.128 5.80005 20.04 5.89605 20.904 6.08805C26.68 7.33605 31 12.456 31 18.6Z" stroke="white" stroke-width="1.5" stroke-linecap="round" stroke-linejoin="round"/>
<path d="M21.048 5C21.048 5.384 21 5.736 20.904 6.088C20.04 5.896 19.128 5.8 18.2 5.8H15.88C14.952 5.8 14.056 5.896 13.192 6.088C13.096 5.736 13.048 5.384 13.048 5C13.048 2.792 14.84 1 17.048 1C19.256 1 21.048 2.792 21.048 5Z" stroke="#878488" stroke-width="1.5" stroke-linecap="round" stroke-linejoin="round"/>
<path d="M21.848 15.4H12.248" stroke="#c3bec4" stroke-width="1.5" stroke-linecap="round" stroke-linejoin="round"/>
</svg>
