<svg width="33" height="33" viewBox="0 0 33 33" fill="none" xmlns="http://www.w3.org/2000/svg">
<path d="M32.6267 26.2666V27.8666C32.6267 30.5066 32.6267 32.6666 27.8267 32.6666H5.42668C0.626678 32.6666 0.626678 30.5066 0.626678 27.8666V26.2666C0.626678 25.3866 1.34668 24.6666 2.22668 24.6666H31.0267C31.9067 24.6666 32.6267 25.3866 32.6267 26.2666Z" fill="#FF5A16"/>
<path opacity="0.4" d="M30.6266 18.2667V24.6667H2.70663V18.2667C2.70663 12.1227 7.04263 6.98667 12.8186 5.75467C13.6826 5.56267 14.5786 5.46667 15.5066 5.46667H17.8266C18.7546 5.46667 19.6666 5.56267 20.5306 5.75467C26.3066 7.00267 30.6266 12.1227 30.6266 18.2667Z" fill="#FF5A16"/>
<path d="M20.6747 4.66663C20.6747 5.05063 20.6267 5.40263 20.5307 5.75463C19.6667 5.56263 18.7547 5.46663 17.8267 5.46663H15.5067C14.5787 5.46663 13.6827 5.56263 12.8187 5.75463C12.7227 5.40263 12.6747 5.05063 12.6747 4.66663C12.6747 2.45863 14.4667 0.666626 16.6747 0.666626C18.8827 0.666626 20.6747 2.45863 20.6747 4.66663Z" fill="#FF5A16"/>
<path d="M21.4747 16.2666H11.8747C11.2187 16.2666 10.6747 15.7226 10.6747 15.0666C10.6747 14.4106 11.2187 13.8666 11.8747 13.8666H21.4747C22.1307 13.8666 22.6747 14.4106 22.6747 15.0666C22.6747 15.7226 22.1307 16.2666 21.4747 16.2666Z" fill="#FF5A16"/>
</svg>
