<svg width="16" height="16" viewBox="0 0 16 16" fill="none" xmlns="http://www.w3.org/2000/svg">
<path d="M14 6.01397C14 6.72797 13.886 7.38797 13.688 7.99997H2.312C2.114 7.38797 2 6.72797 2 6.01397C2 4.15997 3.494 2.65997 5.336 2.65997C6.422 2.65997 7.394 3.18797 8 3.99797C8.606 3.18797 9.578 2.65997 10.664 2.65997C12.506 2.65997 14 4.15997 14 6.01397Z" fill="#FF0000"/>
<path opacity="0.4" d="M13.688 8C12.74 11 9.81798 12.794 8.37198 13.286C8.16798 13.358 7.83198 13.358 7.62798 13.286C6.18198 12.794 3.25998 11 2.31198 8H13.688Z" fill="#FF0000"/>
</svg>
