<svg width="16" height="16" viewBox="0 0 16 16" fill="none" xmlns="http://www.w3.org/2000/svg">
<path d="M14 6.014C14 6.728 13.886 7.388 13.688 8H2.312C2.114 7.388 2 6.728 2 6.014C2 4.16 3.494 2.66 5.336 2.66C6.422 2.66 7.394 3.188 8 3.998C8.606 3.188 9.578 2.66 10.664 2.66C12.506 2.66 14 4.16 14 6.014Z" fill="#121212"/>
<path opacity="0.4" d="M13.688 8C12.74 11 9.81798 12.794 8.37198 13.286C8.16798 13.358 7.83198 13.358 7.62798 13.286C6.18198 12.794 3.25998 11 2.31198 8H13.688Z" fill="#121212"/>
</svg>
