<svg width="32" height="32" viewBox="0 0 32 32" fill="none" xmlns="http://www.w3.org/2000/svg">
<path d="M27.7733 10.68L19.04 3.69332C17.3333 2.33332 14.6666 2.31998 12.9733 3.67998L4.23997 10.68C2.98664 11.68 2.22664 13.68 2.4933 15.2533L4.1733 25.3067C4.55997 27.56 6.6533 29.3333 8.9333 29.3333H23.0666C25.32 29.3333 27.4533 27.52 27.84 25.2933L29.52 15.24C29.76 13.68 29 11.68 27.7733 10.68Z" fill="#FF5A16"/>
<path d="M16 19.5C16.2705 19.5 16.5 19.7295 16.5 20V24C16.5 24.2705 16.2705 24.5 16 24.5C15.7295 24.5 15.5 24.2705 15.5 24V20C15.5 19.7295 15.7295 19.5 16 19.5Z" fill="white" stroke="white"/>
</svg>
