<svg width="28" height="30" viewBox="0 0 28 30" fill="none" xmlns="http://www.w3.org/2000/svg">
<path fill-rule="evenodd" clip-rule="evenodd" d="M13.9999 0.666668C19.7069 0.666668 24.3333 5.29306 24.3333 11V11.9388C24.3333 12.868 24.6083 13.7765 25.1238 14.5496L26.6552 16.8468C28.4327 19.513 27.0757 23.1371 23.9843 23.9802C22.9768 24.2549 21.9608 24.4874 20.9389 24.6774L20.9364 24.6843C19.9111 27.4201 17.1707 29.3333 14 29.3333C10.8294 29.3333 8.08894 27.4201 7.06361 24.6843L7.06109 24.6775C6.03916 24.4874 5.0231 24.255 4.01556 23.9802C0.924103 23.1371 -0.432838 19.513 1.34462 16.8468L2.87609 14.5496C3.39154 13.7765 3.66659 12.868 3.66659 11.9388V11C3.66659 5.29306 8.29298 0.666668 13.9999 0.666668ZM9.49804 25.0493C12.4886 25.4066 15.5114 25.4066 18.502 25.0493C17.5541 26.4113 15.9053 27.3333 14 27.3333C12.0947 27.3333 10.446 26.4113 9.49804 25.0493ZM22.3333 11C22.3333 6.39763 18.6023 2.66667 13.9999 2.66667C9.39755 2.66667 5.66659 6.39763 5.66659 11V11.9388C5.66659 13.2629 5.27466 14.5573 4.5402 15.659L3.00872 17.9562C1.98849 19.4866 2.76735 21.5667 4.54179 22.0507C10.7341 23.7395 17.2657 23.7395 23.4581 22.0507C25.2325 21.5667 26.0114 19.4866 24.9911 17.9562L23.4597 15.659C22.7252 14.5573 22.3333 13.2629 22.3333 11.9388V11Z" fill="#a8bbff"/>
</svg>
