<svg width="27" height="29" viewBox="0 0 27 29" fill="none" xmlns="http://www.w3.org/2000/svg">
<path fill-rule="evenodd" clip-rule="evenodd" d="M13.4467 0C19.1536 0 23.78 4.6264 23.78 10.3333V11.2721C23.78 12.2014 23.9846 13.1726 24.5 13.9457L26.102 16.1802C27.8794 18.8464 26.5225 22.4704 23.431 23.3135C22.4236 23.5883 21.4076 23.8207 20.3857 24.0108L20.3832 24.0176C19.3578 26.7535 16.6174 28.6667 13.4468 28.6667C10.2761 28.6667 7.53569 26.7535 6.51036 24.0176L6.50784 24.0108C5.4859 23.8207 4.46985 23.5883 3.46231 23.3135C0.370849 22.4704 -0.986093 18.8464 0.79137 16.1802L2.32284 13.883C2.83828 13.1098 3.11334 12.2014 3.11334 11.2721V10.3333C3.11334 4.6264 7.73973 0 13.4467 0ZM8.5 24.4457C11.4906 24.8031 15.5094 24.8031 18.5 24.4457C18 25.9457 15.5 27.9457 13.4468 27.4457C11.5 27.9457 9 25.9457 8.5 24.4457ZM22.5685 10.3333C22.5685 5.73097 18.049 1.44574 13.4467 1.44574C8.8443 1.44574 4.5 5.73097 4.5 10.3333V11.2721C4.5 12.5962 4.23446 13.844 3.5 14.9457L2 16.9457C0.979769 18.4761 1.72556 21.4618 3.5 21.9457C9.69234 23.6346 17.3077 23.6346 23.5 21.9457C25.2744 21.4618 26.0202 18.4761 25 16.9457L23.5 14.9457C22.7655 13.844 22.5685 12.7698 22.5685 11.4457V10.3333Z" fill="white"/>
</svg>
