<svg width="27" height="29" viewBox="0 0 27 29" fill="none" xmlns="http://www.w3.org/2000/svg">
<path fill-rule="evenodd" clip-rule="evenodd" d="M13.4467 0.0542603C19.1536 0.0542603 23.78 4.68066 23.78 10.3876V11.3264C23.78 12.2556 23.9846 13.2268 24.5 14L26.102 16.2344C27.8794 18.9006 26.5225 22.5247 23.431 23.3678C22.4236 23.6425 21.4076 23.875 20.3857 24.065L20.3832 24.0719C19.3578 26.8077 16.6174 28.7209 13.4468 28.7209C10.2761 28.7209 7.53569 26.8077 6.51036 24.0719L6.50784 24.0651C5.4859 23.875 4.46985 23.6426 3.46231 23.3678C0.370849 22.5247 -0.986093 18.9006 0.79137 16.2344L2.32284 13.9372C2.83828 13.1641 3.11334 12.2556 3.11334 11.3264V10.3876C3.11334 4.68066 7.73973 0.0542603 13.4467 0.0542603ZM8.5 24.5C11.4906 24.8573 15.5094 24.8573 18.5 24.5C18 26 15.5 28 13.4468 27.5C11.5 28 9 26 8.5 24.5ZM22.5685 10.3876C22.5685 5.78523 18.049 1.5 13.4467 1.5C8.8443 1.5 4.5 5.78523 4.5 10.3876V11.3264C4.5 12.6505 4.23446 13.8983 3.5 15L2 17C0.979769 18.5303 1.72556 21.5161 3.5 22C9.69234 23.6888 17.3077 23.6888 23.5 22C25.2744 21.5161 26.0202 18.5303 25 17L23.5 15C22.7655 13.8983 22.5685 12.8241 22.5685 11.5V10.3876Z" fill="black"/>
</svg>
