<svg width="25" height="24" viewBox="0 0 25 24" fill="none" xmlns="http://www.w3.org/2000/svg">
<path d="M9.88892 10C10.9935 10 11.8889 9.10457 11.8889 8C11.8889 6.89543 10.9935 6 9.88892 6C8.78435 6 7.88892 6.89543 7.88892 8C7.88892 9.10457 8.78435 10 9.88892 10Z" stroke="#667085" stroke-width="1.5" stroke-linecap="round" stroke-linejoin="round"/>
<path d="M13.8889 2H9.88892C4.88892 2 2.88892 4 2.88892 9V15C2.88892 20 4.88892 22 9.88892 22H15.8889C20.8889 22 22.8889 20 22.8889 15V10" stroke="#667085" stroke-width="1.5" stroke-linecap="round" stroke-linejoin="round"/>
<path d="M18.8889 8V2L20.8889 4" stroke="#667085" stroke-width="1.5" stroke-linecap="round" stroke-linejoin="round"/>
<path d="M18.8889 2L16.8889 4" stroke="#667085" stroke-width="1.5" stroke-linecap="round" stroke-linejoin="round"/>
<path d="M3.55884 18.9501L8.48884 15.6401C9.27884 15.1101 10.4188 15.1701 11.1288 15.7801L11.4588 16.0701C12.2388 16.7401 13.4988 16.7401 14.2788 16.0701L18.4388 12.5001C19.2188 11.8301 20.4788 11.8301 21.2588 12.5001L22.8888 13.9001" stroke="#667085" stroke-width="1.5" stroke-linecap="round" stroke-linejoin="round"/>
</svg>
