<svg width="34" height="34" viewBox="0 0 34 34" fill="none" xmlns="http://www.w3.org/2000/svg">
<path d="M16.992 22.0853C19.6417 22.0853 21.7896 19.8085 21.7896 16.9999C21.7896 14.1914 19.6417 11.9146 16.992 11.9146C14.3424 11.9146 12.1944 14.1914 12.1944 16.9999C12.1944 19.8085 14.3424 22.0853 16.992 22.0853Z" stroke="#c3bec4" stroke-width="1.5" stroke-miterlimit="10" stroke-linecap="round" stroke-linejoin="round"/>
<path d="M1 18.4917V15.5083C1 13.7454 2.35932 12.2876 4.03848 12.2876C6.93303 12.2876 8.11644 10.1178 6.66117 7.45652C5.82959 5.93092 6.32534 3.94763 7.78061 3.06617L10.5472 1.38801C11.8106 0.591311 13.4418 1.06594 14.1934 2.40508L14.3693 2.72715C15.8086 5.38848 18.1754 5.38848 19.6307 2.72715L19.8066 2.40508C20.5582 1.06594 22.1894 0.591311 23.4528 1.38801L26.2194 3.06617C27.6747 3.94763 28.1704 5.93092 27.3388 7.45652C25.8836 10.1178 27.067 12.2876 29.9615 12.2876C31.6247 12.2876 33 13.7284 33 15.5083V18.4917C33 20.2546 31.6407 21.7124 29.9615 21.7124C27.067 21.7124 25.8836 23.8822 27.3388 26.5435C28.1704 28.086 27.6747 30.0524 26.2194 30.9338L23.4528 32.612C22.1894 33.4087 20.5582 32.9341 19.8066 31.5949L19.6307 31.2728C18.1914 28.6115 15.8246 28.6115 14.3693 31.2728L14.1934 31.5949C13.4418 32.9341 11.8106 33.4087 10.5472 32.612L7.78061 30.9338C6.32534 30.0524 5.82959 28.0691 6.66117 26.5435C8.11644 23.8822 6.93303 21.7124 4.03848 21.7124C2.35932 21.7124 1 20.2546 1 18.4917Z" stroke="white" stroke-width="1.5" stroke-miterlimit="10" stroke-linecap="round" stroke-linejoin="round"/>
</svg>
